<?xml version="1.0" encoding="utf-8"?>
<!-- Generator: Adobe Illustrator 26.4.1, SVG Export Plug-In . SVG Version: 6.00 Build 0)  -->
<svg version="1.1" id="Layer_1" xmlns="http://www.w3.org/2000/svg" xmlns:xlink="http://www.w3.org/1999/xlink" x="0px" y="0px"
	 viewBox="0 0 700 367.3" style="enable-background:new 0 0 700 367.3;" xml:space="preserve">
<style type="text/css">
	.st0{fill:#913029;}
</style>
<g>
	<path class="st0" d="M352.7,343.9c6.7-0.6,13-3.3,18.1-7.7L663.7,82.9v0c6.7-5.4,10.8-13.3,11.6-21.9s-2-17-7.7-23.5
		s-13.7-10.4-22.2-10.8c-8.6-0.4-17,2.6-23.2,8.5L350,270.5L77.9,35.2c-6.3-5.9-14.7-8.9-23.2-8.5c-8.6,0.4-16.6,4.4-22.2,10.8
		c-5.6,6.5-8.4,15-7.7,23.5c0.7,8.6,4.9,16.4,11.6,21.9l292.9,253.3v0C335.7,341.9,344.2,344.7,352.7,343.9L352.7,343.9z"/>
</g>
</svg>
