<?xml version="1.0" encoding="utf-8"?>
<!-- Generator: Adobe Illustrator 26.5.0, SVG Export Plug-In . SVG Version: 6.00 Build 0)  -->
<svg version="1.1" id="Layer_1" xmlns="http://www.w3.org/2000/svg" xmlns:xlink="http://www.w3.org/1999/xlink" x="0px" y="0px"
	 viewBox="0 0 193.1 215" style="enable-background:new 0 0 193.1 215;" xml:space="preserve">
<style type="text/css">
	.st0{fill:#32A02D;}
	.st1{fill:none;}
</style>
<path class="st0" d="M109.9,106.7c3.8-5.5,7-11.4,9.4-17.7c1.7,6.1,5.4,18.1,0.8,23.9C115.9,118.2,105.8,112.6,109.9,106.7
	 M95.8,146.8c-0.7,10.2-1.6,20.4-2.8,30.6c-0.3,2.8-2.6,10-1.5,12.6c2,4.7,18,4,20.1-0.2c1-2.1,0.4-6.3,0.5-8.5
	c0.4-6.3,0.8-12.6,1.1-18.9c0.8-14.6,1.6-29.2,2.2-43.8c-5.9,0.7-11.3-4.2-10.2-10.2c1-5.4,6.5-10.2,8.3-15.5
	c2.6-7.3-0.6-17.5-2.1-25.1c-4.3,11.7-11.8,1.3-17,8.8c-2.2,3.1,1,11.4,1.5,16.1c0.7,6,1,12.1,1,18.2
	C97.3,122.8,96.7,134.8,95.8,146.8 M96.9,62c-1.1,8.6,8.6,11.7,11.8,3.7c2.8-6.9-2.7-16.6-5.9-22C102.1,50.3,97.8,55.3,96.9,62
	 M86,27.3c0.7-5.6-7-8.6-12-10.3c1,3.5,0.6,8.3,2.6,11.3c2.4,3.7,7.2,5.5,10,8.8C87,37.1,85.9,28.4,86,27.3 M89.8,23.3
	c-0.2,0.9-0.4,9.9,2.5,13.9c0.5,0.6,6,8,7.2,8.3c1.2-3.6,3.2-8.4,2-11.8c-1.7-4.7-7.6-9-11.4-12L89.8,23.3 M85.7,40.5
	c-1.3-2.5-6.4-4.5-8.8-6c0.9,5.8,3.2,8.8,7.2,12.9C84.4,45,85,42.8,85.7,40.5 M89,40.3c-1,3.1-2.9,7.6-1.4,10.5s5.5,5.1,7.5,7.5
	c1-4.4,3.2-7,1.7-10.9c-1-2.5-5.2-6-7.5-8.3L89,40.3 M88.7,71.7c5.6,1.3,7.2-2.8,6.2-6.2c-1-3.5-5.6-7.6-8.5-11.5
	c-1.8-2.3-3.7-4.5-5.8-6.6C80.3,54.7,82.5,70.3,88.7,71.7 M107.5,37l-1.6-2c-2.1,9.4,7,13.2,6.3,27.5C119,55.5,112.1,42.8,107.5,37
	 M127.1,125.3h0.2l0,0H127.1 M128.2,125.4L128.2,125.4 M127.2,125.3h0.1H127.2"/>
<rect class="st1" width="193.1" height="215"/>
</svg>
