<?xml version="1.0" encoding="utf-8"?>
<!-- Generator: Adobe Illustrator 26.4.1, SVG Export Plug-In . SVG Version: 6.00 Build 0)  -->
<svg version="1.1" id="Layer_1" xmlns="http://www.w3.org/2000/svg" xmlns:xlink="http://www.w3.org/1999/xlink" x="0px" y="0px"
	 viewBox="0 0 212 216.7" style="enable-background:new 0 0 212 216.7;" xml:space="preserve">
<style type="text/css">
	.st0{fill:#32A02D;}
</style>
<path class="st0" d="M116.9,115.4c3.8-5.5,7-11.4,9.4-17.7c1.7,6.1,5.4,18.1,0.8,23.9C122.9,126.9,112.8,121.4,116.9,115.4
	 M102.8,155.6c-0.7,10.2-1.6,20.4-2.8,30.6c-0.3,2.8-2.6,10-1.5,12.6c2,4.7,18,4,20.1-0.2c1-2.1,0.4-6.3,0.5-8.5
	c0.4-6.3,0.8-12.6,1.1-18.9c0.8-14.6,1.6-29.2,2.2-43.8c-5.9,0.7-11.3-4.2-10.2-10.2c1-5.4,6.5-10.2,8.3-15.5
	c2.6-7.3-0.6-17.5-2.1-25.1c-4.3,11.7-11.8,1.3-17,8.8c-2.2,3.1,1,11.4,1.5,16.1c0.7,6,1,12.1,1,18.2
	C104.3,131.6,103.7,143.6,102.8,155.6 M103.9,70.7c-1.1,8.6,8.6,11.7,11.8,3.7c2.8-6.9-2.7-16.6-5.9-22
	C109.1,59,104.8,64,103.9,70.7 M93,36.1c0.7-5.6-7-8.6-12-10.3c1,3.5,0.6,8.3,2.6,11.3c2.4,3.7,7.2,5.5,10,8.8
	C94,45.8,92.9,37.1,93,36.1 M96.8,32.1c-0.2,0.9-0.4,9.9,2.5,13.9c0.5,0.6,6,8,7.2,8.3c1.2-3.6,3.2-8.3,2-11.8
	c-1.7-4.7-7.6-9-11.4-12L96.8,32.1 M92.7,49.2c-1.3-2.5-6.4-4.5-8.8-6c0.9,5.8,3.2,8.8,7.2,12.9C91.4,53.8,92,51.5,92.7,49.2
	 M96,49.1c-1,3.1-2.9,7.6-1.4,10.5c1.4,2.9,5.5,5.1,7.5,7.5c1-4.4,3.2-7,1.7-10.9c-1-2.5-5.2-6-7.5-8.3L96,49.1 M95.7,80.5
	c5.6,1.3,7.2-2.8,6.2-6.2c-1-3.5-5.6-7.6-8.5-11.5c-1.8-2.3-3.7-4.5-5.8-6.6C87.3,63.5,89.5,79,95.7,80.5 M114.5,45.8l-1.6-2
	c-2.1,9.4,7,13.2,6.3,27.5C126,64.3,119.1,51.6,114.5,45.8 M134.1,134h0.2l0,0H134.1 M135.2,134.1L135.2,134.1 M134.2,134.1h0.1
	H134.2"/>
</svg>
